<html>
<head>
<meta charset="UTF-8">
<meta name="viewport" content="width=device-width, initial-scale=1.0"/>

<style>
.comment
{
    padding-left: 20px;
    margin-top: 4px;
    margin-right: 4px;
    margin-bottom: 4px;
    border: 2px #000 solid;
}
.submission
{
    border: 4px #00f solid;
    padding-left: 20px;
}
.hidden
{
    display: none;
}
</style>
</head>
<body><div class="submission" id="t3_782k71">
    <p class="userinfo">
        <a href="https://www.reddit.com/u/fuckRtrump">fuckRtrump</a>
        <span class="score"> | 21 points</span>
        <span class="timestamp"> | Oct 22 2017 20:01:45</span>
    </p>
    <strong>[TV] Gunpowder.S01E01.720p.iP.WEBRip.AAC2.0.H264-ViSUM</strong>
    <p><p>http://www.imdb.com/title/tt6128262/</p>
<p>http://links.snahp.it/65313213131</p>
<p>password: megalinks</p>
<p>English subtitle is included (not hardcoded).</p>
<p>Screenshots ( BBC WATERMARK ): http://imagecurl.com/viewer.php?file=59625552686110808554.jpg</p>
<blockquote>
<p>Video
ID                                       : 3
Format                                   : AVC
Format/Info                              : Advanced Video Codec
Format profile                           : High@L4.1
Format settings, CABAC                   : Yes
Format settings, ReFrames                : 2 frames
Codec ID                                 : V_MPEG4/ISO/AVC
Duration                                 : 58mn 41s
Bit rate mode                            : Variable
Bit rate                                 : 2 336 Kbps
Maximum bit rate                         : 3 500 Kbps
Width                                    : 1 280 pixels
Height                                   : 720 pixels
Display aspect ratio                     : 16:9
Frame rate mode                          : Constant
Frame rate                               : 25.000 fps
Color space                              : YUV
Chroma subsampling                       : 4:2:0
Bit depth                                : 8 bits
Scan type                                : Progressive
Bits/(Pixel*Frame)                       : 0.101
Stream size                              : 981 MiB (88%)
Language                                 : English
Default                                  : Yes
Forced                                   : No</p>
</blockquote>
<p>Audio
ID                                       : 1
Format                                   : AAC
Format/Info                              : Advanced Audio Codec
Format profile                           : LC
Codec ID                                 : A_AAC
Duration                                 : 58mn 41s
Bit rate                                 : 317 Kbps
Channel(s)                               : 2 channels
Channel positions                        : Front: L R
Sampling rate                            : 48.0 KHz
Frame rate                               : 46.875 fps (1024 spf)
Compression mode                         : Lossy
Delay relative to video                  : -40ms
Stream size                              : 133 MiB (12%)
Language                                 : English
Default                                  : Yes
Forced                                   : No</p>
<p>Text
ID                                       : 2
Format                                   : UTF-8
Codec ID                                 : S_TEXT/UTF8
Codec ID/Info                            : UTF-8 Plain Text
Duration                                 : 57mn 51s
Bit rate                                 : 103 bps
Count of elements                        : 588
Stream size                              : 44.0 KiB (0%)
Language                                 : English
Default                                  : Yes
Forced                                   : No</p></p>
    <p class="toolbar">
        <a href="https://www.reddit.com/r/megalinks/comments/782k71">permalink</a>
    </p>
</div>
<div class="comment" id="t1_doqkzfp">
    <p class="userinfo">
        <a
        class="toggle_hide_button"
        href="javascript:void(0)"
        onclick="toggle_collapse(this.parentElement.parentElement)">[-]
        </a>
        <a href="https://www.reddit.com/u/SubZorro">SubZorro</a>
        <span class="score"> | 1 points</span>
        <span class="timestamp"> | Oct 22 2017 21:02:45</span>
    </p>
    <div class="collapsible">
        <h5>Subtitles for this episode:</h5>
<hr>
<blockquote>
<ul>
<li>
<p><strong>Crusoe.S01E01.E02.Rum.And.Gunpowder.DVDRip-REWARD</strong> - <code>1 CD</code> - <a href="http://dl.opensubtitles.org/en/download/vrf-cdc6771b/sub/3596261">Download Subtitle</a></p>
</li>
<li>
<p><strong>Gunpowder.S01E01.INTERNAL.READNFO.720p.HDTV.x264-FaiLED</strong> - <code>1 CD</code> - <a href="http://dl.opensubtitles.org/en/download/vrf-c3ad8656/sub/7133600">Download Subtitle</a></p>
</li>
<li>
<p><strong>Gunpowder.S01E01.HDTV.x264-MTB</strong> - <code>1 CD</code> - <a href="http://dl.opensubtitles.org/en/download/vrf-8de87c99/sub/7133396">Download Subtitle</a></p>
</li>
</ul>
</blockquote>
<hr>
<p>^This ^list ^of ^subtitles ^are ^taken ^from <a href="http://www.opensubtitles.org">^opensubtitles.org</a> ^| ^For ^feedback ^or ^suggestions ^contact <a href="http://www.reddit.com/message/compose/?to=indigo6alpha">^/u/indigo6alpha</a></p>
        <p class="toolbar">
            <a href="https://www.reddit.com/r/megalinks/comments/782k71/_/doqkzfp">permalink</a>
        </p>
        
    </div>
</div>

<div class="comment" id="t1_dqza4bf">
    <p class="userinfo">
        <a
        class="toggle_hide_button"
        href="javascript:void(0)"
        onclick="toggle_collapse(this.parentElement.parentElement)">[-]
        </a>
        <a href="https://www.reddit.com/u/Sochiu">Sochiu</a>
        <span class="score"> | 1 points</span>
        <span class="timestamp"> | Dec 09 2017 02:00:22</span>
    </p>
    <div class="collapsible">
        <p>Thanks! Glad someone uploaded this series. Do you have a 1080p version for this episode?</p>
        <p class="toolbar">
            <a href="https://www.reddit.com/r/megalinks/comments/782k71/_/dqza4bf">permalink</a>
        </p>
        
    </div>
</div>
</body>

<script>
function toggle_collapse(comment_div)
{
    var button = comment_div.getElementsByClassName("toggle_hide_button")[0];
    var collapsible = comment_div.getElementsByClassName("collapsible")[0];
    if (collapsible.classList.contains("hidden"))
    {
        collapsible.classList.remove("hidden");
        button.innerText = "[-]";
    }
    else
    {
        collapsible.classList.add("hidden");
        button.innerText = "[+]";
    }
}
</script>
</html>
